<?xml version="1.0" encoding="UTF-8"?>
<svg width="12px" height="12px" viewBox="0 0 12 12" version="1.1" xmlns="http://www.w3.org/2000/svg" xmlns:xlink="http://www.w3.org/1999/xlink">
    <title>icon / ui / plus copy</title>
    <defs>
        <path d="M11.195474,2.98821984 C10.6589227,2.06901175 9.93112507,1.34121414 9.01188961,0.804690172 C8.09248998,0.268193572 7.0888369,0 6.00016418,0 C4.91160092,0 3.90764684,0.268193572 2.98841139,0.804690172 C2.06912121,1.34113204 1.34132359,2.06892966 0.804772264,2.98821984 C0.268193572,3.90756475 0,4.91151883 0,6 C0,7.08853589 0.268275664,8.09232579 0.804690172,9.01172543 C1.34121414,9.93093352 2.06901175,10.6587311 2.98830193,11.1953098 C3.90764684,11.7317791 4.91151883,12 6.00005473,12 C7.08859062,12 8.09257207,11.7317791 9.01186225,11.1953098 C9.9310977,10.6589227 10.658868,9.93093352 11.1953646,9.01172543 C11.7317791,8.09240789 11.9999453,7.08848117 11.9999453,6 C11.9999726,4.91140938 11.7317791,3.90742793 11.195474,2.98821984 Z M8.8281684,7.41394738 C8.92714362,7.51281315 8.97669964,7.630259 8.97669964,7.76568293 C8.97669964,7.90614183 8.92714362,8.02602307 8.8281684,8.12488883 L8.12510775,8.8281684 C8.02621462,8.92703416 7.90636074,8.97648073 7.76568293,8.97648073 C7.63028636,8.97648073 7.51294997,8.92703416 7.41413893,8.8281684 L6.00008209,7.41394738 L4.58597053,8.8281684 C4.48702267,8.92703416 4.36985046,8.97648073 4.23442652,8.97648073 C4.09377608,8.97648073 3.9740043,8.92703416 3.87502907,8.8281684 L3.17185897,8.12488883 C3.07291111,8.02602307 3.02343718,7.90614183 3.02343718,7.76568293 C3.02343718,7.63028636 3.07293847,7.51284051 3.17185897,7.41394738 L4.58597053,5.99997264 L3.17185897,4.58586107 C3.07291111,4.48702267 3.02343718,4.369741 3.02343718,4.23431707 C3.02343718,4.09366663 3.07293847,3.97389484 3.17185897,3.87491962 L3.87502907,3.17185897 C3.9740043,3.07291111 4.09377608,3.02343718 4.23442652,3.02343718 C4.36985046,3.02343718 4.48702267,3.07293847 4.58597053,3.17185897 L6.00008209,4.58586107 L7.41413893,3.17185897 C7.5129226,3.07291111 7.630259,3.02343718 7.76568293,3.02343718 C7.90636074,3.02343718 8.02621462,3.07293847 8.12510775,3.17185897 L8.8281684,3.87491962 C8.92714362,3.97389484 8.97669964,4.09366663 8.97669964,4.23431707 C8.97669964,4.36971364 8.92714362,4.48702267 8.8281684,4.58586107 L7.41413893,5.99997264 L8.8281684,7.41394738 Z" id="path-1"></path>
    </defs>
    <g id="Responses-&amp;-Followups-/-Quick-filter" stroke="none" stroke-width="1" fill="none" fill-rule="evenodd">
        <g id="A01" transform="translate(-1214.000000, -614.000000)">
            <g id="Group-46-Copy-30" transform="translate(696.000000, 440.000000)">
                <g id="Group-3" transform="translate(16.000000, 160.000000)">
                    <g id="icon-/-ui-/-plus-copy" transform="translate(502.000000, 14.000000)">
                        <mask id="mask-2" fill="white">
                            <use xlink:href="#path-1"></use>
                        </mask>
                        <use id="Color" fill="#3B5369" xlink:href="#path-1"></use>
                    </g>
                </g>
            </g>
        </g>
    </g>
</svg>